<?xml version="1.0" encoding="UTF-8" standalone="no"?>
<svg
   xmlns:dc="http://purl.org/dc/elements/1.1/"
   xmlns:cc="http://creativecommons.org/ns#"
   xmlns:rdf="http://www.w3.org/1999/02/22-rdf-syntax-ns#"
   xmlns:svg="http://www.w3.org/2000/svg"
   xmlns="http://www.w3.org/2000/svg"
   xmlns:sodipodi="http://sodipodi.sourceforge.net/DTD/sodipodi-0.dtd"
   xmlns:inkscape="http://www.inkscape.org/namespaces/inkscape"
   width="289.42001"
   height="289.42001"
   version="1.1"
   viewBox="0 0 289.42002 289.42"
   id="svg39"
   sodipodi:docname="bolaloca.svg"
   inkscape:version="1.0.2 (e86c870879, 2021-01-15)">
  <metadata
     id="metadata43">
    <rdf:RDF>
      <cc:Work
         rdf:about="">
        <dc:format>image/svg+xml</dc:format>
        <dc:type
           rdf:resource="http://purl.org/dc/dcmitype/StillImage" />
        <dc:title></dc:title>
      </cc:Work>
    </rdf:RDF>
  </metadata>
  <sodipodi:namedview
     pagecolor="#ffffff"
     bordercolor="#666666"
     borderopacity="1"
     objecttolerance="10"
     gridtolerance="10"
     guidetolerance="10"
     inkscape:pageopacity="0"
     inkscape:pageshadow="2"
     inkscape:window-width="1920"
     inkscape:window-height="1016"
     id="namedview41"
     showgrid="false"
     fit-margin-top="0"
     fit-margin-left="0"
     fit-margin-right="0"
     fit-margin-bottom="0"
     inkscape:zoom="2.2857508"
     inkscape:cx="145.895"
     inkscape:cy="144.71001"
     inkscape:window-x="0"
     inkscape:window-y="0"
     inkscape:window-maximized="1"
     inkscape:current-layer="svg39" />
  <defs
     id="defs7">
    <linearGradient
       id="linearGradient4765"
       x1="485.34"
       x2="774.76001"
       y1="254.92999"
       y2="254.92999"
       gradientTransform="translate(-776.76,-21.401)"
       gradientUnits="userSpaceOnUse">
      <stop
         stop-color="#910000"
         offset="0"
         id="stop2" />
      <stop
         stop-color="#e70000"
         offset="1"
         id="stop4" />
    </linearGradient>
  </defs>
  <g
     id="g884"
     transform="translate(-88.819992,-2)">
    <circle
       transform="rotate(-90)"
       cx="-146.71001"
       cy="233.53"
       r="141.21001"
       fill="url(#linearGradient4765)"
       stroke="#000000"
       stroke-width="7"
       id="circle13"
       style="fill:url(#linearGradient4765);fill-rule:evenodd" />
    <path
       d="m 243.58,170.65 c 7.3353,0.0524 14.127,-2.5502 21.414,-3.3906 3.5578,-0.41028 7.1264,-0.96604 10.707,-0.89224 4.7947,0.0988 9.7332,0.24766 14.276,1.7845 3.1312,1.0593 6.3471,2.5462 8.5656,4.9966 1.5363,1.697 2.3849,4.0054 2.8552,6.2457 0.8189,3.9008 0.65481,8.0584 -0.17845,11.956 -1.1642,5.4459 -3.3686,10.813 -6.6026,15.347 -2.0542,2.8795 -4.9242,5.153 -7.8518,7.138 -2.2459,1.5228 -4.7274,2.7565 -7.3164,3.569 -2.5847,0.8111 -5.3294,1.0403 -8.0302,1.2492 -2.1943,0.16965 -4.4074,0.15718 -6.6026,0 -7.9124,-0.56654 -15.643,-2.824 -23.555,-3.3906 -2.0173,-0.14444 -4.0458,-0.0598 -6.0673,0 -8.0408,0.23804 -16.074,2.0962 -24.091,1.4276 -3.7099,-0.3094 -7.4834,-0.98653 -10.885,-2.4983 -3.3176,-1.4742 -6.6067,-3.4498 -8.9225,-6.2457 -2.955,-3.5676 -4.5805,-8.1774 -5.7104,-12.67 -1.0471,-4.1635 -1.605,-8.6148 -0.89225,-12.848 0.65482,-3.8896 2.2212,-7.7695 4.6397,-10.885 2.1592,-2.782 5.1274,-5.0917 8.3871,-6.4242 10.612,-3.3968 22.317,-0.27363 32.299,3.2121 0,0 9.103,2.288 13.562,2.3198 z"
       fill="#ffffff"
       stroke="#000000"
       stroke-width="4"
       id="path15"
       style="fill-rule:evenodd" />
    <path
       d="m 203.35,164.08 -5.6348,1.0371 -7.9922,5.2715 -5.2988,11.609 -0.25391,7.8242 2.5234,10.094 4.7949,9.0859 10.854,6.5606 14.131,1.5137 15.143,-2.0176 h 7.5703 l 17.918,2.5234 14.891,0.75586 10.6,-2.2695 8.5801,-6.3106 5.8047,-7.0664 4.7949,-10.852 0.25195,-12.365 -3.5332,-6.8145 -5.8047,-3.5332 -9.8418,-2.7754 h -13.627 l -10.854,2.2715 -14.789,2.0274 -13.562,-2.3203 -9.4414,-2.1719 -5.8652,-2.0781 z m 8.2539,3.7207 c 2.0902,-0.016 4.4776,-0.15103 6.7383,0.14453 1.5552,0.20333 10.638,2.8808 13.777,3.7051 2.5858,0.67894 5.1638,1.5046 7.8242,1.7676 3.3496,0.33116 6.7528,0.15712 10.094,-0.25195 3.0793,-0.37702 6.0322,-1.473 9.0859,-2.0195 1.8386,-0.32906 3.6966,-0.54948 5.5527,-0.75781 2.8533,-0.32024 8.5801,-0.75586 8.5801,-0.75586 0,0 7.6424,0.19963 11.355,1.0098 2.7035,0.58986 5.5749,1.1637 7.8242,2.7754 1.6553,1.1861 2.9395,2.9424 3.7852,4.7949 0.74681,1.6359 0.84078,3.5085 1.0098,5.2988 0.14229,1.5075 0.16522,3.0378 0,4.543 -0.16925,1.5419 -1.0098,4.543 -1.0098,4.543 l -11.104,-1.0098 -16.656,-2.0195 -8.0762,-0.50391 c 0,0 7.2064,2.2848 10.852,3.2812 4.0939,1.1192 8.4474,1.4001 12.367,3.0273 2.0915,0.86829 4.134,2.0023 5.8027,3.5332 1.1532,1.0579 2.7773,3.7852 2.7773,3.7852 l -3.7852,4.543 c -4.1481,4.6353 -8.3023,6.248 -14.133,7.3184 -2.4916,0.47401 -5.0362,0.78531 -7.5723,0.75781 -3.4744,-0.0377 -6.9053,-0.77566 -10.346,-1.2617 -4.7244,-0.66746 -9.3683,-2.0169 -14.133,-2.2715 -3.1965,-0.1708 -6.3987,0.25215 -9.5898,0.50391 -3.2043,0.2528 -6.3861,0.74975 -9.5898,1.0098 -2.9394,0.23855 -5.8897,0.67336 -8.834,0.50586 -2.4715,-0.1406 -4.9291,-0.61394 -7.3184,-1.2617 -2.0811,-0.56422 -4.2137,-1.1522 -6.0566,-2.2715 -1.9346,-1.175 -3.6004,-2.802 -5.0469,-4.543 -1.134,-1.3649 -2.7754,-4.543 -2.7754,-4.543 0,0 1.8068,-1.4104 2.7754,-2.0195 2.1028,-1.3224 4.2675,-2.5826 6.5625,-3.5332 2.4342,-1.0083 5.0235,-1.5944 7.5703,-2.2695 3.2546,-0.86275 6.5913,-1.3933 9.8418,-2.2715 2.4659,-0.66619 7.3184,-2.2715 7.3184,-2.2715 l -37.602,1.7656 c 0,0 -0.37376,-5.6222 0.25195,-8.3281 0.64465,-2.7878 1.8057,-5.5412 3.5332,-7.8223 1.6582,-2.1895 3.7949,-4.194 6.3086,-5.3008 2.9508,-1.2992 6.3699,-1.0969 9.5898,-1.2617 0.73541,-0.0376 1.564,-0.0577 2.4492,-0.0645 z"
       fill="#0d020b"
       fill-opacity="0.13333"
       fill-rule="evenodd"
       id="path19" />
    <g
       fill-rule="evenodd"
       id="g29">
      <ellipse
         cx="172.44"
         cy="112.34"
         rx="25.615"
         ry="21.451"
         id="ellipse21" />
      <ellipse
         cx="306.44"
         cy="113.35"
         rx="25.615"
         ry="21.451"
         id="ellipse23" />
      <path
         d="m 218.24,97.201 c 0,0 -4.3797,-9.2728 -7.0662,-13.628 -5.9457,-9.6379 -12.293,-19.152 -19.937,-27.508 -5.7956,-6.3352 -12.445,-11.918 -19.432,-16.909 -6.5635,-4.6877 -13.395,-9.28 -20.946,-12.114 -4.0932,-1.5359 -8.5142,-2.1569 -12.871,-2.5237 -3.2703,-0.27533 -6.6154,-0.34586 -9.8423,0.25236 -2.7207,0.50439 -5.9816,0.71095 -7.8233,2.776 -0.74704,0.8376 -1.0665,2.2019 -0.7571,3.2808 0.39356,1.3723 1.882,2.1776 3.0284,3.0284 7.5856,5.6297 18.307,9.6966 24.984,13.375 6.6776,3.6787 10.226,5.5006 15.142,8.5804 5.0227,3.1465 9.9836,6.4243 14.637,10.095 5.2384,4.1316 10.072,8.7598 14.89,13.375 3.9946,3.8274 7.2304,8.4796 11.609,11.861 2.147,1.6583 4.5614,2.996 7.0662,4.0379 2.3366,0.97185 7.3186,2.0189 7.3186,2.0189 z"
         id="path25" />
      <path
         d="m 259.47,99.22 c 0,0 4.3797,-9.2728 7.0662,-13.628 5.9457,-9.6379 12.293,-19.152 19.937,-27.508 5.7956,-6.3352 12.445,-11.918 19.432,-16.909 6.5635,-4.6877 13.395,-9.28 20.946,-12.114 4.0932,-1.5359 8.5142,-2.1569 12.871,-2.5237 3.2703,-0.27533 6.6154,-0.34586 9.8423,0.25236 2.7207,0.50439 5.9815,0.71095 7.8233,2.776 0.74703,0.8376 1.0665,2.2019 0.7571,3.2808 -0.39356,1.3723 -1.882,2.1776 -3.0284,3.0284 -7.5856,5.6297 -18.307,9.6966 -24.984,13.375 -6.677,3.6784 -10.226,5.5006 -15.142,8.5804 -5.0227,3.1465 -9.9836,6.4243 -14.637,10.095 -5.2384,4.1316 -10.072,8.7598 -14.89,13.375 -3.9946,3.8274 -7.2304,8.4796 -11.609,11.861 -2.147,1.6582 -4.5614,2.996 -7.0662,4.0379 -2.3366,0.97185 -7.3186,2.0189 -7.3186,2.0189 z"
         id="path27" />
    </g>
    <path
       d="m 316.56,222.75 c 0,0 4.1766,-11.045 5.5319,-16.774 0.94114,-3.9786 1.4863,-8.0571 1.7845,-12.135 0.28202,-3.8561 0.41448,-7.7551 0,-11.599 -0.35897,-3.3292 -1.2195,-6.5956 -2.1414,-9.8147 -1.4608,-5.1006 -3.3452,-10.079 -5.3535,-14.99 -1.6622,-4.0646 -5.5319,-11.956 -5.5319,-11.956 l 1.0707,-0.3569 c 0,0 1.7052,1.991 2.4983,3.0336 2.9474,3.8745 5.7977,7.8337 8.3871,11.956 2.1389,3.4051 4.1282,6.9133 5.8888,10.529 1.2141,2.4929 2.413,5.0181 3.2121,7.6733 0.73292,2.4353 1.2631,4.957 1.4276,7.4949 0.19658,3.0325 0.0869,6.1264 -0.53534,9.1009 -0.84397,4.0342 -2.4903,7.8879 -4.2828,11.599 -1.544,3.1968 -3.5769,6.1377 -5.5319,9.1009 -1.6908,2.5627 -5.3535,7.4949 -5.3535,7.4949 z"
       fill="#030d00"
       fill-opacity="0.16719"
       fill-rule="evenodd"
       id="path31" />
    <path
       d="m 125.37,150.95 c -3.796,83.096 80.252,132.24 80.252,132.24 l -23.218,-5.0473 -26.751,-13.628 -24.227,-20.189 -22.208,-30.284 -13.628,-34.826 -3.5331,-40.379 7.0662,-33.817 10.095,-24.732 14.637,-22.208 19.18,-19.685 27.256,-18.17 26.751,-10.095 18.17,-2.5237 c 0,0 -85.735,53.424 -89.842,143.34 z"
       fill="#030d00"
       fill-opacity="0.12941"
       fill-rule="evenodd"
       id="path33" />
    <path
       d="m 185.76,196.52 c 0,0 7.1234,-3.3548 10.885,-4.4612 4.701,-1.3826 9.5912,-2.0767 14.454,-2.6768 3.7856,-0.46709 11.421,-0.7138 11.421,-0.7138 l 41.4,0.7138 c 0,0 9.926,0.71433 14.811,1.606 3.5056,0.63988 7.0129,1.4269 10.35,2.6767 3.2385,1.2129 9.2794,4.6397 9.2794,4.6397"
       fill="none"
       stroke="#8d8d8d"
       stroke-linecap="round"
       stroke-width="3"
       id="path35" />
    <path
       d="m 243.58,170.65 c 7.3353,0.0524 14.127,-2.5502 21.414,-3.3906 3.5578,-0.41028 7.1264,-0.96604 10.707,-0.89224 4.7947,0.0988 9.7332,0.24766 14.276,1.7845 3.1312,1.0593 6.3471,2.5462 8.5656,4.9966 1.5363,1.697 2.3849,4.0054 2.8552,6.2457 0.8189,3.9008 0.65481,8.0584 -0.17845,11.956 -1.1642,5.4459 -3.3686,10.813 -6.6026,15.347 -2.0542,2.8795 -4.9242,5.153 -7.8518,7.138 -2.2459,1.5228 -4.7274,2.7565 -7.3164,3.569 -2.5847,0.8111 -5.3294,1.0403 -8.0302,1.2492 -2.1943,0.16965 -4.4074,0.15718 -6.6026,0 -7.9124,-0.56654 -15.643,-2.824 -23.555,-3.3906 -2.0173,-0.14444 -4.0458,-0.0598 -6.0673,0 -8.0408,0.23804 -16.074,2.0962 -24.091,1.4276 -3.7099,-0.3094 -7.4834,-0.98653 -10.885,-2.4983 -3.3176,-1.4742 -6.6067,-3.4498 -8.9225,-6.2457 -2.955,-3.5676 -4.5805,-8.1774 -5.7104,-12.67 -1.0471,-4.1635 -1.605,-8.6148 -0.89225,-12.848 0.65482,-3.8896 2.2212,-7.7695 4.6397,-10.885 2.1592,-2.782 5.1274,-5.0917 8.3871,-6.4242 10.612,-3.3968 22.317,-0.27363 32.299,3.2121 0,0 9.103,2.288 13.562,2.3198 z"
       fill="none"
       stroke="#000000"
       stroke-width="4"
       id="path37" />
  </g>
</svg>
